<svg xmlns="http://www.w3.org/2000/svg" viewBox="0 0 520 64" fill="none">
  <defs>
    <linearGradient id="gold-grad" x1="0%" y1="0%" x2="100%" y2="100%">
      <stop offset="0%" stop-color="#D6B37F"/>
      <stop offset="100%" stop-color="#B8945E"/>
    </linearGradient>
  </defs>
  <!-- Isotipo (compact) -->
  <g transform="translate(0, 0) scale(0.32)">
    <circle cx="100" cy="58" r="28" stroke="url(#gold-grad)" stroke-width="2.5" fill="none"/>
    <circle cx="100" cy="58" r="18" fill="url(#gold-grad)"/>
    <line x1="88" y1="50" x2="112" y2="50" stroke="#0F0F0F" stroke-width="1.8" stroke-linecap="round"/>
    <line x1="91" y1="58" x2="109" y2="58" stroke="#0F0F0F" stroke-width="1.8" stroke-linecap="round"/>
    <line x1="95" y1="65" x2="100" y2="62" stroke="#0F0F0F" stroke-width="1.5" stroke-linecap="round"/>
    <line x1="100" y1="62" x2="105" y2="65" stroke="#0F0F0F" stroke-width="1.5" stroke-linecap="round"/>
    <path d="M30 160 L60 95 L78 120 L100 72 L122 110 L140 88 L170 160 Z" fill="url(#gold-grad)" opacity="0.9"/>
    <path d="M30 160 L60 95 L78 120 L100 72 L122 110 L140 88 L170 160" stroke="url(#gold-grad)" stroke-width="2.5" fill="none" stroke-linejoin="round"/>
  </g>
  <!-- Text -->
  <text x="78" y="26" font-family="Georgia, 'Times New Roman', serif" font-size="22" font-weight="700" fill="#D6B37F" letter-spacing="2">Peru</text>
  <text x="78" y="26" font-family="Georgia, 'Times New Roman', serif" font-size="22" font-weight="700" fill="#D6B37F" letter-spacing="2">Peru</text>
  <text x="133" y="26" font-family="Georgia, 'Times New Roman', serif" font-size="22" font-weight="700" fill="#1C1C1C" letter-spacing="2">Travel</text>
  <text x="78" y="50" font-family="Georgia, 'Times New Roman', serif" font-size="22" font-weight="700" fill="#1C1C1C" letter-spacing="2">Experts</text>
  <text x="177" y="50" font-family="Georgia, 'Times New Roman', serif" font-size="22" font-weight="700" fill="#D6B37F" letter-spacing="2">B</text>
  <!-- Decorative line -->
  <line x1="78" y1="32" x2="212" y2="32" stroke="#D6B37F" stroke-width="0.5" opacity="0.6"/>
</svg>
